<?xml version="1.0" encoding="UTF-8"?>
<svg xmlns="http://www.w3.org/2000/svg" xmlns:xlink="http://www.w3.org/1999/xlink" width="px" height="18px" viewBox="0 0 18 18" version="1.1">
<g id="surface1">
<path style=" stroke:none;fill-rule:nonzero;fill:rgb(0%,0%,0%);fill-opacity:1;" d="M 5.519531 14.398438 L 2.90625 14.398438 L 2.90625 5.988281 L 5.519531 5.988281 Z M 4.214844 4.839844 C 3.378906 4.839844 2.699219 4.148438 2.699219 3.3125 C 2.699219 2.910156 2.859375 2.527344 3.144531 2.246094 C 3.429688 1.960938 3.8125 1.800781 4.214844 1.800781 C 4.613281 1.800781 4.996094 1.960938 5.28125 2.246094 C 5.566406 2.527344 5.726562 2.914062 5.726562 3.3125 C 5.726562 4.148438 5.046875 4.839844 4.214844 4.839844 Z M 15.296875 14.398438 L 12.691406 14.398438 L 12.691406 10.304688 C 12.691406 9.328125 12.671875 8.078125 11.332031 8.078125 C 9.972656 8.078125 9.765625 9.136719 9.765625 10.234375 L 9.765625 14.398438 L 7.15625 14.398438 L 7.15625 5.988281 L 9.660156 5.988281 L 9.660156 7.136719 L 9.699219 7.136719 C 10.046875 6.472656 10.898438 5.777344 12.167969 5.777344 C 14.8125 5.777344 15.300781 7.519531 15.300781 9.777344 L 15.300781 14.398438 Z M 15.296875 14.398438 "/>
</g>
</svg>
