<?xml version="1.0" encoding="UTF-8"?>
<svg xmlns="http://www.w3.org/2000/svg" xmlns:xlink="http://www.w3.org/1999/xlink" width="px" height="18px" viewBox="0 0 18 18" version="1.1">
<g id="surface1">
<path style=" stroke:none;fill-rule:nonzero;fill:rgb(0%,0%,0%);fill-opacity:1;" d="M 9.335938 1.984375 C 6.453125 1.984375 3.601562 3.90625 3.601562 7.019531 C 3.601562 9 4.714844 10.125 5.390625 10.125 C 5.667969 10.125 5.828125 9.347656 5.828125 9.128906 C 5.828125 8.867188 5.160156 8.3125 5.160156 7.222656 C 5.160156 4.960938 6.882812 3.359375 9.109375 3.359375 C 11.023438 3.359375 12.441406 4.445312 12.441406 6.445312 C 12.441406 7.941406 11.84375 10.742188 9.902344 10.742188 C 9.203125 10.742188 8.601562 10.234375 8.601562 9.507812 C 8.601562 8.445312 9.347656 7.417969 9.347656 6.320312 C 9.347656 4.457031 6.703125 4.796875 6.703125 7.046875 C 6.703125 7.519531 6.765625 8.039062 6.976562 8.472656 C 6.585938 10.140625 5.792969 12.632812 5.792969 14.351562 C 5.792969 14.882812 5.871094 15.40625 5.921875 15.9375 C 6.015625 16.046875 5.96875 16.035156 6.113281 15.980469 C 7.53125 14.039062 7.480469 13.660156 8.121094 11.121094 C 8.46875 11.777344 9.363281 12.132812 10.070312 12.132812 C 13.058594 12.132812 14.398438 9.222656 14.398438 6.597656 C 14.398438 3.804688 11.988281 1.984375 9.335938 1.984375 Z M 9.335938 1.984375 "/>
</g>
</svg>
