<?xml version="1.0" encoding="UTF-8"?>
<svg xmlns="http://www.w3.org/2000/svg" xmlns:xlink="http://www.w3.org/1999/xlink" width="px" height="18px" viewBox="0 0 18 18" version="1.1">
<g id="surface1">
<path style=" stroke:none;fill-rule:nonzero;fill:rgb(0%,0%,0%);fill-opacity:1;" d="M 14.71875 6.066406 C 14.730469 6.191406 14.730469 6.324219 14.730469 6.449219 C 14.730469 10.351562 11.757812 14.847656 6.332031 14.847656 C 4.65625 14.847656 3.105469 14.363281 1.800781 13.523438 C 2.035156 13.550781 2.265625 13.558594 2.511719 13.558594 C 3.890625 13.558594 5.160156 13.09375 6.175781 12.300781 C 4.878906 12.269531 3.792969 11.421875 3.417969 10.25 C 3.601562 10.28125 3.78125 10.296875 3.972656 10.296875 C 4.238281 10.296875 4.503906 10.261719 4.75 10.195312 C 3.398438 9.921875 2.386719 8.734375 2.386719 7.296875 L 2.386719 7.261719 C 2.777344 7.480469 3.234375 7.617188 3.71875 7.636719 C 2.921875 7.105469 2.402344 6.203125 2.402344 5.179688 C 2.402344 4.628906 2.546875 4.125 2.804688 3.6875 C 4.257812 5.480469 6.441406 6.648438 8.890625 6.773438 C 8.84375 6.554688 8.816406 6.328125 8.816406 6.101562 C 8.816406 4.476562 10.132812 3.148438 11.765625 3.148438 C 12.617188 3.148438 13.382812 3.507812 13.925781 4.082031 C 14.589844 3.953125 15.234375 3.707031 15.796875 3.371094 C 15.578125 4.054688 15.113281 4.628906 14.5 4.996094 C 15.09375 4.929688 15.671875 4.765625 16.199219 4.539062 C 15.796875 5.125 15.292969 5.644531 14.71875 6.066406 Z M 14.71875 6.066406 "/>
</g>
</svg>
